<svg width="20" height="21" viewBox="0 0 20 21" fill="none" xmlns="http://www.w3.org/2000/svg">
<path fill-rule="evenodd" clip-rule="evenodd" d="M5 6.33333C5 5.8731 5.3731 5.5 5.83333 5.5H14.1667C14.6269 5.5 15 5.8731 15 6.33333V14.6667C15 15.1269 14.6269 15.5 14.1667 15.5C13.7064 15.5 13.3333 15.1269 13.3333 14.6667V7.16667H5.83333C5.3731 7.16667 5 6.79357 5 6.33333Z" fill="#1E1E20"/>
<path fill-rule="evenodd" clip-rule="evenodd" d="M14.7559 5.74408C15.0814 6.06951 15.0814 6.59715 14.7559 6.92259L6.42259 15.2559C6.09715 15.5814 5.56951 15.5814 5.24408 15.2559C4.91864 14.9305 4.91864 14.4028 5.24408 14.0774L13.5774 5.74408C13.9028 5.41864 14.4305 5.41864 14.7559 5.74408Z" fill="#1E1E20"/>
</svg>
