<svg width="171" height="22" viewBox="0 0 171 22" fill="none" xmlns="http://www.w3.org/2000/svg">
<path fill-rule="evenodd" clip-rule="evenodd" d="M15.75 4.79543H9.06818C7.875 4.79543 6.68183 5.27272 5.72728 6.22727C4.77274 7.18181 4.29545 8.13634 4.29545 9.56816V21.2613H0V9.56816C0 7.1818 0.954543 4.79548 2.625 3.12502C4.29546 1.45456 6.44318 0.5 9.06818 0.5H15.75V4.79543ZM9.06818 8.85228V13.1477H11.6932H14.3182C15.0341 13.1477 15.75 13.3863 16.4659 14.1022C16.9432 14.5795 17.4205 15.2955 17.4205 16.25V18.6364V21.5H21.7159V18.6364V16.25V15.7727C21.7159 14.5795 21.2387 13.3864 20.7614 12.1932C21.7159 12.9091 22.9091 13.1477 24.3409 13.1477H24.8182H27.4432H30.0682V8.85228H27.4432H24.8182C24.1023 8.85228 23.3864 8.61366 22.6705 7.89775C22.1932 7.42048 21.7159 6.70451 21.7159 5.74996V3.3636V0.5H17.4205V3.3636V5.74996V6.22727C17.4205 7.42045 17.8977 8.61363 18.375 9.80682C17.4205 9.09091 16.2273 8.85228 14.7955 8.85228H14.3182H11.6932H9.06818ZM34.841 11L39.6137 21.2613H35.3182L31.5 13.1477V8.85228L35.3182 0.5H39.6137L34.841 11Z" fill="white"/>
<path d="M47.4889 0.619141H46.7729V21.3805H47.4889V0.619141Z" fill="#4A6F86"/>
<path fill-rule="evenodd" clip-rule="evenodd" d="M57.5116 13.7441V18.7555H54.6479V8.73276C54.6479 5.63048 57.0343 3.24414 60.1366 3.24414H70.398V3.48272C70.398 8.49409 70.398 13.5055 70.398 18.5169V18.7555H67.5343V16.1305C67.5343 15.4146 67.2957 14.9373 66.8184 14.46C66.3411 13.9827 65.6252 13.7441 65.148 13.7441H61.0912H57.5116ZM121.944 9.44864L124.091 3.48272H127.194L124.33 10.8805L127.909 18.7555H124.807L121.944 12.3123C120.034 12.3123 118.841 12.3123 116.693 12.3123C115.739 12.3123 115.023 12.0736 114.307 11.835C114.307 13.9827 114.307 16.3691 114.307 18.5169V18.7555H111.443V18.5169C111.443 13.5055 111.443 8.49409 111.443 3.48272V3.24414H114.307V3.48272C114.307 4.6759 114.307 5.86914 114.307 6.82369C114.307 8.25551 115.5 9.21006 116.693 9.21006C118.841 9.44869 120.034 9.44864 121.944 9.44864ZM73.5003 3.24414H83.7616C86.8639 3.24414 89.2503 5.63048 89.2503 8.73276V13.2668C89.2503 16.3691 86.8639 18.7555 83.7616 18.7555H73.5003V18.5169C73.5003 13.5055 73.5003 8.49409 73.5003 3.48272V3.24414ZM95.4548 13.7441V18.7555H92.5912V8.73276C92.5912 5.63048 94.9776 3.24414 98.0798 3.24414H108.341V3.48272C108.341 8.49409 108.341 13.5055 108.341 18.5169V18.7555H105.478V16.1305C105.478 15.4146 105.239 14.9373 104.762 14.46C104.284 13.9827 103.568 13.7441 103.091 13.7441H99.0344H95.4548ZM152.012 7.06227V18.7555H149.148V3.24414H153.682L159.887 15.4146L166.091 3.24414H170.625V18.7555H167.762V7.06227L161.796 18.7555H158.455L152.012 7.06227ZM133.159 13.7441V18.7555H130.296V8.73276C130.296 5.63048 132.682 3.24414 135.784 3.24414H146.046V3.48272C146.046 8.49409 146.046 13.5055 146.046 18.5169V18.7555H142.705V16.1305C142.705 15.4146 142.466 14.9373 141.989 14.46C141.512 13.9827 140.796 13.7441 140.319 13.7441H136.262H133.159ZM61.0912 10.8805H64.9093C65.8639 10.8805 66.5798 11.1191 67.2957 11.3578V6.34639H60.1366C58.7048 6.34639 57.7502 7.53957 57.7502 8.73276V10.6418L61.0912 10.8805ZM76.6025 6.34639C76.6025 9.44867 76.6025 12.7896 76.6025 15.8919H83.7616C85.1935 15.8919 86.148 14.6987 86.148 13.5055V8.73276C86.148 7.30094 84.9548 6.34639 83.7616 6.34639H76.6025ZM98.7957 10.8805H102.614C103.568 10.8805 104.284 11.1191 105 11.3578V6.34639H97.8412C96.4094 6.34639 95.4548 7.53957 95.4548 8.73276V10.6418L98.7957 10.8805ZM136.5 10.8805H140.319C141.273 10.8805 141.989 11.1191 142.705 11.3578V6.34639H135.546C134.114 6.34639 133.159 7.53957 133.159 8.73276V10.6418L136.5 10.8805Z" fill="#48B0EC"/>
</svg>
