<svg width="1417" height="603" viewBox="0 0 1417 603" fill="none" xmlns="http://www.w3.org/2000/svg">
<path fill-rule="evenodd" clip-rule="evenodd" d="M1022.56 311.705C1022.55 311.701 1022.55 311.696 1022.55 311.692L1022.54 311.685C1022.48 311.612 1022.36 311.468 1022.19 311.257C1021.84 310.836 1021.27 310.15 1020.5 309.228C1018.95 307.381 1016.6 304.599 1013.59 301.108C1007.54 294.092 998.995 284.394 989.087 273.766C967.759 250.886 945.651 229.719 930.115 218.867L928.602 217.81C862.463 171.608 854.807 166.259 829.1 167.265C828.519 167.288 827.94 167.31 827.364 167.33C828.865 171.886 830.412 176.135 831.839 179.823C833.192 183.321 834.336 186.051 835.064 187.741C835.426 188.581 835.678 189.145 835.792 189.4C835.802 189.423 835.812 189.443 835.82 189.461L839.185 196.674L1050.53 836.455L666.345 591.797L614.084 500.541C614.089 500.549 614.088 500.548 614.081 500.536L614.073 500.521L614.064 500.505L614.052 500.485L613.971 500.344C613.851 500.136 613.64 499.772 613.34 499.258C612.74 498.23 611.788 496.608 610.508 494.458C607.945 490.154 604.083 483.758 599.119 475.798C589.15 459.815 574.939 437.852 558.045 414.016C539.976 388.521 520.783 363.7 501.98 342.312C494.149 348.117 485.239 353.537 475.129 358.142C445.982 371.416 387.227 293.088 358 289.016C305.155 281.652 65.9124 519.002 7.00016 475.798C-39.5961 441.626 162.617 189.369 196.788 142.772C230.96 96.1758 296.436 86.1037 343.032 120.275C361.16 133.569 375.416 142.759 386.287 149.09C387.537 147.251 388.838 145.421 390.184 143.632C403.179 126.352 432.194 96.6206 480.691 93.3807C522.817 90.5665 554.776 110.058 571.141 121.837C584.998 131.812 598.566 143.114 611.702 155.242C611.075 148.281 610.708 141.115 610.698 133.832C610.661 108.148 615.016 69.0512 640.415 33.4102C670.481 -8.77874 710.138 -28.8257 748.783 -36.5451C771.708 -41.1245 801.059 -41.5235 814.768 -41.7099C817.495 -41.747 819.603 -41.7756 820.918 -41.8271C920.327 -45.7171 986.317 1.7004 1034.72 36.4797C1040 40.2722 1045.07 43.9143 1049.95 47.3233C1084.68 71.5855 1119.31 106.579 1142.15 131.081C1154.33 144.144 1164.72 155.942 1172.1 164.5C1175.8 168.796 1178.78 172.32 1180.88 174.832C1181.94 176.09 1182.77 177.097 1183.38 177.824C1183.68 178.187 1183.92 178.481 1184.1 178.702L1184.33 178.977L1184.45 179.126C1184.46 179.133 1184.46 179.14 1103.5 245.416L1184.46 179.14C1221.06 223.852 1487.21 439.195 1442.5 475.798C1397.8 512.389 1059.2 356.409 1022.59 311.74C1022.58 311.737 1022.58 311.734 1022.58 311.731L1022.56 311.705ZM819.989 132.57C820 132.58 819.997 132.837 819.951 133.313C819.956 132.798 819.979 132.56 819.989 132.57Z" fill="#DAEFFB"/>
</svg>
