<svg width="112" height="16" viewBox="0 0 112 16" fill="none" xmlns="http://www.w3.org/2000/svg">
<path d="M8.00016 1.33398L10.0602 5.50732L14.6668 6.18065L11.3335 9.42732L12.1202 14.014L8.00016 11.8473L3.88016 14.014L4.66683 9.42732L1.3335 6.18065L5.94016 5.50732L8.00016 1.33398Z" fill="#F09434"/>
<path fill-rule="evenodd" clip-rule="evenodd" d="M7.99986 0.666016C8.2536 0.666016 8.48535 0.810064 8.59766 1.0376L10.5027 4.89699L14.7629 5.51969C15.014 5.55639 15.2224 5.73239 15.3007 5.97373C15.3789 6.21507 15.3134 6.4799 15.1317 6.65692L12.0495 9.65893L12.7769 13.9C12.8198 14.1501 12.717 14.4029 12.5117 14.5521C12.3064 14.7012 12.0342 14.7209 11.8096 14.6027L7.99986 12.5992L4.19016 14.6027C3.96555 14.7209 3.69335 14.7012 3.48803 14.5521C3.28271 14.4029 3.17988 14.1501 3.22278 13.9L3.95017 9.65893L0.868035 6.65692C0.686289 6.4799 0.620774 6.21507 0.699026 5.97373C0.777278 5.73239 0.985731 5.55639 1.23677 5.51969L5.49701 4.89699L7.40205 1.0376C7.51436 0.810064 7.74611 0.666016 7.99986 0.666016ZM7.99986 2.83885L6.53766 5.8011C6.44063 5.99766 6.25318 6.13397 6.03627 6.16567L2.76546 6.64375L5.13168 8.94844C5.28893 9.1016 5.3607 9.32236 5.32359 9.53871L4.76531 12.7938L7.68955 11.256C7.88381 11.1538 8.1159 11.1538 8.31016 11.256L11.2344 12.7938L10.6761 9.53871C10.639 9.32236 10.7108 9.1016 10.868 8.94844L13.2342 6.64375L9.96344 6.16567C9.74653 6.13397 9.55908 5.99766 9.46205 5.8011L7.99986 2.83885Z" fill="#F09434"/>
<path d="M32.0002 1.33398L34.0602 5.50732L38.6668 6.18065L35.3335 9.42732L36.1202 14.014L32.0002 11.8473L27.8802 14.014L28.6668 9.42732L25.3335 6.18065L29.9402 5.50732L32.0002 1.33398Z" fill="#F09434"/>
<path fill-rule="evenodd" clip-rule="evenodd" d="M31.9999 0.666016C32.2536 0.666016 32.4853 0.810064 32.5977 1.0376L34.5027 4.89699L38.7629 5.51969C39.014 5.55639 39.2224 5.73239 39.3007 5.97373C39.3789 6.21507 39.3134 6.4799 39.1317 6.65692L36.0495 9.65893L36.7769 13.9C36.8198 14.1501 36.717 14.4029 36.5117 14.5521C36.3064 14.7012 36.0342 14.7209 35.8096 14.6027L31.9999 12.5992L28.1902 14.6027C27.9655 14.7209 27.6934 14.7012 27.488 14.5521C27.2827 14.4029 27.1799 14.1501 27.2228 13.9L27.9502 9.65893L24.868 6.65692C24.6863 6.4799 24.6208 6.21507 24.699 5.97373C24.7773 5.73239 24.9857 5.55639 25.2368 5.51969L29.497 4.89699L31.4021 1.0376C31.5144 0.810064 31.7461 0.666016 31.9999 0.666016ZM31.9999 2.83885L30.5377 5.8011C30.4406 5.99766 30.2532 6.13397 30.0363 6.16567L26.7655 6.64375L29.1317 8.94844C29.2889 9.1016 29.3607 9.32236 29.3236 9.53871L28.7653 12.7938L31.6896 11.256C31.8838 11.1538 32.1159 11.1538 32.3102 11.256L35.2344 12.7938L34.6761 9.53871C34.639 9.32236 34.7108 9.1016 34.868 8.94844L37.2342 6.64375L33.9634 6.16567C33.7465 6.13397 33.5591 5.99766 33.462 5.8011L31.9999 2.83885Z" fill="#F09434"/>
<path d="M56.0002 1.33398L58.0602 5.50732L62.6668 6.18065L59.3335 9.42732L60.1202 14.014L56.0002 11.8473L51.8802 14.014L52.6668 9.42732L49.3335 6.18065L53.9402 5.50732L56.0002 1.33398Z" fill="#F09434"/>
<path fill-rule="evenodd" clip-rule="evenodd" d="M55.9999 0.666016C56.2536 0.666016 56.4853 0.810064 56.5977 1.0376L58.5027 4.89699L62.7629 5.51969C63.014 5.55639 63.2224 5.73239 63.3007 5.97373C63.3789 6.21507 63.3134 6.4799 63.1317 6.65692L60.0495 9.65893L60.7769 13.9C60.8198 14.1501 60.717 14.4029 60.5117 14.5521C60.3064 14.7012 60.0342 14.7209 59.8096 14.6027L55.9999 12.5992L52.1902 14.6027C51.9655 14.7209 51.6934 14.7012 51.488 14.5521C51.2827 14.4029 51.1799 14.1501 51.2228 13.9L51.9502 9.65893L48.868 6.65692C48.6863 6.4799 48.6208 6.21507 48.699 5.97373C48.7773 5.73239 48.9857 5.55639 49.2368 5.51969L53.497 4.89699L55.4021 1.0376C55.5144 0.810064 55.7461 0.666016 55.9999 0.666016ZM55.9999 2.83885L54.5377 5.8011C54.4406 5.99766 54.2532 6.13397 54.0363 6.16567L50.7655 6.64375L53.1317 8.94844C53.2889 9.1016 53.3607 9.32236 53.3236 9.53871L52.7653 12.7938L55.6896 11.256C55.8838 11.1538 56.1159 11.1538 56.3102 11.256L59.2344 12.7938L58.6761 9.53871C58.639 9.32236 58.7108 9.1016 58.868 8.94844L61.2342 6.64375L57.9634 6.16567C57.7465 6.13397 57.5591 5.99766 57.462 5.8011L55.9999 2.83885Z" fill="#F09434"/>
<path d="M80.0002 1.33398L82.0602 5.50732L86.6668 6.18065L83.3335 9.42732L84.1202 14.014L80.0002 11.8473L75.8802 14.014L76.6668 9.42732L73.3335 6.18065L77.9402 5.50732L80.0002 1.33398Z" fill="#F09434"/>
<path fill-rule="evenodd" clip-rule="evenodd" d="M79.9999 0.666016C80.2536 0.666016 80.4853 0.810064 80.5977 1.0376L82.5027 4.89699L86.7629 5.51969C87.014 5.55639 87.2224 5.73239 87.3007 5.97373C87.3789 6.21507 87.3134 6.4799 87.1317 6.65692L84.0495 9.65893L84.7769 13.9C84.8198 14.1501 84.717 14.4029 84.5117 14.5521C84.3064 14.7012 84.0342 14.7209 83.8096 14.6027L79.9999 12.5992L76.1902 14.6027C75.9655 14.7209 75.6934 14.7012 75.488 14.5521C75.2827 14.4029 75.1799 14.1501 75.2228 13.9L75.9502 9.65893L72.868 6.65692C72.6863 6.4799 72.6208 6.21507 72.699 5.97373C72.7773 5.73239 72.9857 5.55639 73.2368 5.51969L77.497 4.89699L79.4021 1.0376C79.5144 0.810064 79.7461 0.666016 79.9999 0.666016ZM79.9999 2.83885L78.5377 5.8011C78.4406 5.99766 78.2532 6.13397 78.0363 6.16567L74.7655 6.64375L77.1317 8.94844C77.2889 9.1016 77.3607 9.32236 77.3236 9.53871L76.7653 12.7938L79.6896 11.256C79.8838 11.1538 80.1159 11.1538 80.3102 11.256L83.2344 12.7938L82.6761 9.53871C82.639 9.32236 82.7108 9.1016 82.868 8.94844L85.2342 6.64375L81.9634 6.16567C81.7465 6.13397 81.5591 5.99766 81.462 5.8011L79.9999 2.83885Z" fill="#F09434"/>
<path d="M104 1.33398L106.06 5.50732L110.667 6.18065L107.333 9.42732L108.12 14.014L104 11.8473L99.8802 14.014L100.667 9.42732L97.3335 6.18065L101.94 5.50732L104 1.33398Z" fill="#F09434"/>
<path fill-rule="evenodd" clip-rule="evenodd" d="M104 0.666016C104.254 0.666016 104.485 0.810064 104.598 1.0376L106.503 4.89699L110.763 5.51969C111.014 5.55639 111.222 5.73239 111.301 5.97373C111.379 6.21507 111.313 6.4799 111.132 6.65692L108.05 9.65893L108.777 13.9C108.82 14.1501 108.717 14.4029 108.512 14.5521C108.306 14.7012 108.034 14.7209 107.81 14.6027L104 12.5992L100.19 14.6027C99.9655 14.7209 99.6934 14.7012 99.488 14.5521C99.2827 14.4029 99.1799 14.1501 99.2228 13.9L99.9502 9.65893L96.868 6.65692C96.6863 6.4799 96.6208 6.21507 96.699 5.97373C96.7773 5.73239 96.9857 5.55639 97.2368 5.51969L101.497 4.89699L103.402 1.0376C103.514 0.810064 103.746 0.666016 104 0.666016ZM104 2.83885L102.538 5.8011C102.441 5.99766 102.253 6.13397 102.036 6.16567L98.7655 6.64375L101.132 8.94844C101.289 9.1016 101.361 9.32236 101.324 9.53871L100.765 12.7938L103.69 11.256C103.884 11.1538 104.116 11.1538 104.31 11.256L107.234 12.7938L106.676 9.53871C106.639 9.32236 106.711 9.1016 106.868 8.94844L109.234 6.64375L105.963 6.16567C105.747 6.13397 105.559 5.99766 105.462 5.8011L104 2.83885Z" fill="#F09434"/>
</svg>
