<svg width="55" height="55" viewBox="0 0 55 55" fill="none" xmlns="http://www.w3.org/2000/svg">
<g filter="url(#filter0_b_1058_4286)">
<rect width="55" height="55" rx="27.5" fill="url(#paint0_linear_1058_4286)"/>
<path d="M36.4256 21.8654C33.2892 16.998 26.8663 15.5558 21.8991 18.5754C17.0519 21.595 15.4912 28.175 18.6276 33.0274L18.8827 33.418L17.8322 37.354L21.764 36.3024L22.1542 36.5578C23.85 37.4742 25.6958 38 27.5266 38C29.4925 38 31.4584 37.4742 33.1541 36.4226C38.0013 33.2678 39.442 26.823 36.4256 21.8354V21.8654ZM33.6794 31.9908C33.1541 32.772 32.4938 33.2978 31.5784 33.433C31.0532 33.433 30.3929 33.6884 27.7817 32.6519C25.5607 31.6003 23.7149 29.8876 22.4093 27.9196C21.629 27.0033 21.2238 25.8164 21.1037 24.6296C21.1037 23.578 21.4939 22.6616 22.1542 22.0006C22.4093 21.7452 22.6794 21.61 22.9345 21.61H23.5948C23.85 21.61 24.1201 21.61 24.2551 22.1358C24.5103 22.7968 25.1706 24.3742 25.1706 24.5095C25.3056 24.6447 25.2456 25.6512 24.6453 26.2221C24.3152 26.5976 24.2551 26.6127 24.3902 26.8831C24.9154 27.6643 25.5757 28.4605 26.221 29.1215C27.0014 29.7825 27.7967 30.3083 28.7121 30.6989C28.9673 30.8341 29.2374 30.8341 29.3724 30.5637C29.5075 30.3083 30.1528 29.6473 30.4229 29.3769C30.678 29.1215 30.8131 29.1215 31.0832 29.2417L33.1842 30.2933C33.4393 30.4285 33.7094 30.5487 33.8445 30.6839C33.9795 31.0745 33.9795 31.6003 33.7094 31.9908H33.6794Z" fill="white"/>
</g>
<defs>
<filter id="filter0_b_1058_4286" x="-7" y="-7" width="69" height="69" filterUnits="userSpaceOnUse" color-interpolation-filters="sRGB">
<feFlood flood-opacity="0" result="BackgroundImageFix"/>
<feGaussianBlur in="BackgroundImageFix" stdDeviation="3.5"/>
<feComposite in2="SourceAlpha" operator="in" result="effect1_backgroundBlur_1058_4286"/>
<feBlend mode="normal" in="SourceGraphic" in2="effect1_backgroundBlur_1058_4286" result="shape"/>
</filter>
<linearGradient id="paint0_linear_1058_4286" x1="27.5" y1="0" x2="27.5" y2="55" gradientUnits="userSpaceOnUse">
<stop stop-color="#60FD7A"/>
<stop offset="1" stop-color="#27CF44"/>
</linearGradient>
</defs>
</svg>
