<svg width="166" height="149" viewBox="0 0 166 149" fill="none" xmlns="http://www.w3.org/2000/svg">
<g filter="url(#filter0_d_961_1249)">
<rect x="64" y="60" width="68" height="68" rx="34" fill="#F09434" shape-rendering="crispEdges"/>
<path d="M97.7287 103.182L98.0057 101.686C98.2273 100.486 98.6797 99.3778 99.3629 98.3622C100.055 97.3466 100.946 96.5295 102.036 95.9109C103.125 95.2923 104.386 94.983 105.817 94.983C107.285 94.983 108.476 95.2876 109.39 95.897C110.304 96.5064 110.936 97.3189 111.287 98.3345C111.638 99.3501 111.698 100.467 111.467 101.686L111.19 103.182C110.969 104.373 110.512 105.481 109.819 106.506C109.136 107.521 108.245 108.338 107.146 108.957C106.048 109.576 104.773 109.885 103.324 109.885C101.874 109.885 100.697 109.576 99.7923 108.957C98.8874 108.338 98.2596 107.521 97.9087 106.506C97.5671 105.481 97.5071 104.373 97.7287 103.182ZM102.825 101.686L102.548 103.182C102.456 103.699 102.498 104.216 102.673 104.733C102.858 105.25 103.315 105.509 104.044 105.509C104.81 105.509 105.355 105.259 105.678 104.761C106.001 104.253 106.214 103.727 106.315 103.182L106.592 101.686C106.694 101.132 106.666 100.597 106.509 100.08C106.362 99.5625 105.891 99.304 105.097 99.304C104.367 99.304 103.832 99.5625 103.49 100.08C103.148 100.597 102.927 101.132 102.825 101.686ZM85.5966 86.9503L85.8182 85.4545C86.0028 84.2266 86.4414 83.1094 87.1339 82.103C87.8356 81.0874 88.7404 80.2749 89.8484 79.6655C90.9563 79.0561 92.2166 78.7514 93.6293 78.7514C95.0973 78.7514 96.2791 79.0561 97.1747 79.6655C98.0703 80.2749 98.6889 81.0874 99.0305 82.103C99.3814 83.1094 99.4645 84.2266 99.2798 85.4545L99.0582 86.9503C98.8828 88.169 98.4489 89.2816 97.7564 90.288C97.0639 91.2944 96.1591 92.0977 95.0419 92.6978C93.9247 93.2979 92.6413 93.598 91.1918 93.598C89.7422 93.598 88.5742 93.2979 87.6879 92.6978C86.8015 92.0884 86.1875 91.2805 85.8459 90.2741C85.5043 89.2585 85.4212 88.1506 85.5966 86.9503ZM90.6932 85.4545L90.4716 86.9503C90.3885 87.5043 90.43 88.0305 90.5962 88.5291C90.7717 89.0277 91.2102 89.277 91.9119 89.277C92.6783 89.277 93.2276 89.0277 93.56 88.5291C93.8924 88.0305 94.1001 87.5043 94.1832 86.9503L94.4048 85.4545C94.4879 84.9006 94.4556 84.3651 94.3079 83.848C94.1694 83.331 93.7031 83.0724 92.9091 83.0724C92.1797 83.0724 91.6442 83.3402 91.3026 83.8757C90.9702 84.402 90.767 84.9283 90.6932 85.4545ZM84.2947 108.5L108.504 80.1364H112.658L88.4496 108.5H84.2947Z" fill="white"/>
</g>
<defs>
<filter id="filter0_d_961_1249" x="0" y="0" width="196" height="196" filterUnits="userSpaceOnUse" color-interpolation-filters="sRGB">
<feFlood flood-opacity="0" result="BackgroundImageFix"/>
<feColorMatrix in="SourceAlpha" type="matrix" values="0 0 0 0 0 0 0 0 0 0 0 0 0 0 0 0 0 0 127 0" result="hardAlpha"/>
<feOffset dy="4"/>
<feGaussianBlur stdDeviation="32"/>
<feComposite in2="hardAlpha" operator="out"/>
<feColorMatrix type="matrix" values="0 0 0 0 0 0 0 0 0 0 0 0 0 0 0 0 0 0 0.11 0"/>
<feBlend mode="normal" in2="BackgroundImageFix" result="effect1_dropShadow_961_1249"/>
<feBlend mode="normal" in="SourceGraphic" in2="effect1_dropShadow_961_1249" result="shape"/>
</filter>
</defs>
</svg>
